<?xml version="1.0" encoding="UTF-8"?>
<!DOCTYPE svg PUBLIC "-//W3C//DTD SVG 1.0//EN" "http://www.w3.org/TR/2001/REC-SVG-20010904/DTD/svg10.dtd">
<!-- Creator: CorelDRAW 2019 (64-Bit) -->
<svg xmlns="http://www.w3.org/2000/svg" xml:space="preserve" width="0.55in" height="0.33in" version="1.0" style="shape-rendering:geometricPrecision; text-rendering:geometricPrecision; image-rendering:optimizeQuality; fill-rule:evenodd; clip-rule:evenodd"
viewBox="0 0 37.38 22.43"
 xmlns:xlink="http://www.w3.org/1999/xlink"
 xmlns:xodm="http://www.corel.com/coreldraw/odm/2003">
 <defs>
  <style type="text/css">
   <![CDATA[
    .fil5 {fill:none}
    .fil2 {fill:#F29FC4}
    .fil1 {fill:#F7C9DF}
    .fil0 {fill:white}
    .fil4 {fill:black;fill-rule:nonzero}
    .fil3 {fill:#0E6325;fill-rule:nonzero}
   ]]>
  </style>
   <clipPath id="id0">
    <path d="M-0 0l37.38 0 0 22.43 -37.38 0 0 -22.43z"/>
   </clipPath>
 </defs>
 <g id="Layer_x0020_1">
  <metadata id="CorelCorpID_0Corel-Layer"/>
  <path class="fil0" d="M-0 0l37.38 0 0 22.43 -37.38 0 0 -22.43z"/>
  <g style="clip-path:url(#id0)">
   <g id="_2247970981440">
    <g>
     <g>
      <path id="1" class="fil1" d="M22.6 8.87c-2.03,-2.59 -1.74,-5.45 0.11,-8.24l0 0 0 -0c1.84,2.79 2.13,5.65 0.11,8.24 -0.04,-0 -0.07,-0.01 -0.11,-0.01 -0.04,0 -0.07,0 -0.11,0.01z"/>
      <path class="fil1" d="M22.45 8.9c-2.97,-1.25 -4.12,-3.84 -3.93,-7.15l0 0 0 -0c3,1.5 4.68,3.84 4.21,7.12 -0.01,-0 -0.02,-0 -0.03,-0 -0.09,0 -0.17,0.01 -0.25,0.03z"/>
      <path class="fil1" d="M22.12 9.07c-3.03,0.26 -5.22,-1.4 -6.65,-4.26l0 -0 -0 -0c3.35,-0.2 5.98,0.99 7.2,4.06 -0.21,0.01 -0.4,0.08 -0.56,0.2z"/>
      <path class="fil1" d="M21.77 9.65c-2.37,1.39 -4.92,0.98 -7.42,-0.67l0 -0 -0 -0c2.79,-1.84 5.65,-2.13 8.24,-0.11 -0.42,0.05 -0.75,0.37 -0.82,0.78z"/>
      <path class="fil1" d="M22.95 8.9c2.97,-1.25 4.13,-3.84 3.93,-7.15l-0 0 -0 -0c-3,1.5 -4.68,3.84 -4.21,7.12 0.01,-0 0.02,-0 0.03,-0 0.09,0 0.17,0.01 0.25,0.03z"/>
      <path class="fil1" d="M23.29 9.07c3.03,0.26 5.22,-1.4 6.65,-4.26l-0 -0 0 -0c-3.35,-0.2 -5.98,0.99 -7.2,4.06 0.21,0.01 0.4,0.08 0.56,0.2z"/>
      <path class="fil1" d="M23.63 9.65c2.37,1.39 4.92,0.98 7.42,-0.67l-0 -0 0 -0c-2.79,-1.84 -5.65,-2.13 -8.24,-0.11 0.42,0.05 0.75,0.37 0.82,0.78z"/>
      <path class="fil2" d="M22.8 8.87c1.26,-1.61 1.63,-3.33 1.28,-5.07 -1.18,1.34 -1.72,3.02 -1.42,5.06 0.01,-0 0.03,-0 0.04,-0 0.03,0 0.06,0 0.1,0z"/>
      <path class="fil2" d="M23.27 9.06c1.84,0.16 3.36,-0.38 4.6,-1.47 -1.74,-0.35 -3.46,0.02 -5.07,1.29 0.17,0.02 0.34,0.09 0.47,0.19z"/>
      <path class="fil2" d="M22.72 8.87c0.3,-2.04 -0.24,-3.72 -1.42,-5.06 -0.35,1.74 0.02,3.46 1.29,5.07l0 -0 0 -0 0 -0 0 -0 0 -0 0 0 0 -0 0 -0 0 -0 0 0 0 -0 0 0 0 -0 0 0 0 -0 0 -0 0.01 -0 0 -0 0 0 0 0 0 -0 0 0 0 -0 0.01 -0 0 0 0 -0 0 0 0 0 0 -0 0 0 0 0 0.01 -0 0 0 0 0 0 -0 0 0 0 0 0 0 0.02 -0 0.01 0z"/>
      <path class="fil2" d="M22.95 8.9c1.84,-0.77 2.98,-2.05 3.53,-3.7 -1.69,0.57 -2.99,1.75 -3.76,3.67 0.08,0 0.15,0.01 0.22,0.03z"/>
      <path class="fil2" d="M22.65 8.87c-0.76,-1.92 -2.07,-3.11 -3.76,-3.68 0.56,1.65 1.71,2.94 3.56,3.71 0.07,-0.02 0.13,-0.03 0.2,-0.03z"/>
      <path class="fil2" d="M22.56 8.88c-1.61,-1.26 -3.32,-1.63 -5.06,-1.28 1.24,1.09 2.78,1.64 4.62,1.47 0.12,-0.1 0.28,-0.16 0.44,-0.19z"/>
      <path class="fil3" d="M3.03 16.98c0.53,0.12 0.99,0.18 1.38,0.18 0.49,0 0.96,-0.09 1.39,-0.28 0.43,-0.18 0.8,-0.45 1.12,-0.8 0.31,-0.35 0.56,-0.76 0.74,-1.25 0.18,-0.49 0.27,-1.04 0.27,-1.65 0,-0.59 -0.09,-1.14 -0.26,-1.63 -0.18,-0.49 -0.42,-0.91 -0.74,-1.26 -0.31,-0.35 -0.69,-0.62 -1.13,-0.81 -0.44,-0.19 -0.91,-0.28 -1.42,-0.28 -0.2,0 -0.41,0.02 -0.64,0.05 -0.23,0.04 -0.47,0.09 -0.71,0.16l0 7.57zm1.07 -8.25c0.89,0 1.67,0.1 2.33,0.31 0.67,0.21 1.22,0.5 1.65,0.88 0.44,0.38 0.76,0.84 0.98,1.38 0.22,0.54 0.33,1.15 0.33,1.83 0,0.66 -0.11,1.26 -0.32,1.81 -0.21,0.55 -0.52,1.03 -0.94,1.42 -0.41,0.4 -0.93,0.71 -1.54,0.93 -0.62,0.22 -1.33,0.34 -2.15,0.34l-2.67 0 0 -7.28c0,-0.4 -0.06,-0.73 -0.17,-0.98 -0.11,-0.25 -0.37,-0.37 -0.78,-0.37l-0.27 0 0 -0.27 3.53 0zm8.66 8.9l-1.21 0 0 -4.72c0,-0.4 -0.06,-0.73 -0.17,-0.98 -0.11,-0.25 -0.37,-0.37 -0.78,-0.37l-0.27 0 0 -0.27 1.21 0c0.23,0 0.43,0.02 0.59,0.06 0.16,0.04 0.28,0.12 0.38,0.24 0.09,0.12 0.16,0.29 0.2,0.5 0.04,0.21 0.05,0.48 0.05,0.82l0 4.72zm-0.08 -7.76c0,0.19 -0.06,0.34 -0.17,0.45 -0.11,0.11 -0.26,0.16 -0.45,0.16 -0.21,0 -0.38,-0.09 -0.53,-0.26 -0.15,-0.17 -0.22,-0.37 -0.22,-0.61 0,-0.19 0.06,-0.34 0.17,-0.45 0.11,-0.11 0.26,-0.16 0.45,-0.16 0.21,0 0.38,0.09 0.53,0.26 0.15,0.17 0.22,0.37 0.22,0.61zm5.29 5.87l1.89 -4.45 0.67 0 -2.77 6.47 -0.27 0 -2.09 -4.92c-0.11,-0.25 -0.21,-0.46 -0.31,-0.63 -0.1,-0.17 -0.2,-0.31 -0.31,-0.42 -0.11,-0.11 -0.23,-0.19 -0.35,-0.24 -0.13,-0.05 -0.27,-0.09 -0.43,-0.09l0 -0.27c0.04,0 0.11,-0 0.21,-0.01 0.1,-0.01 0.19,-0.01 0.25,-0.01 0.2,0 0.4,0.02 0.61,0.07 0.21,0.04 0.42,0.13 0.61,0.25 0.2,0.12 0.39,0.29 0.57,0.51 0.18,0.22 0.35,0.51 0.5,0.86l1.21 2.9zm5.57 1.89l-1.21 0 0 -4.72c0,-0.4 -0.06,-0.73 -0.17,-0.98 -0.11,-0.25 -0.37,-0.37 -0.78,-0.37l-0.27 0 0 -0.27 1.21 0c0.23,0 0.43,0.02 0.59,0.06 0.16,0.04 0.28,0.12 0.38,0.24 0.09,0.12 0.16,0.29 0.2,0.5 0.04,0.21 0.05,0.48 0.05,0.82l0 4.72zm-0.08 -7.76c0,0.19 -0.06,0.34 -0.17,0.45 -0.11,0.11 -0.26,0.16 -0.45,0.16 -0.21,0 -0.38,-0.09 -0.53,-0.26 -0.15,-0.17 -0.22,-0.37 -0.22,-0.61 0,-0.19 0.06,-0.34 0.17,-0.45 0.11,-0.11 0.26,-0.16 0.45,-0.16 0.21,0 0.38,0.09 0.53,0.26 0.15,0.17 0.22,0.37 0.22,0.61zm6.84 6.14c0,0.29 -0.06,0.54 -0.18,0.76 -0.12,0.22 -0.29,0.4 -0.49,0.55 -0.21,0.15 -0.46,0.26 -0.75,0.34 -0.29,0.08 -0.6,0.11 -0.94,0.11 -0.54,0 -0.98,-0.05 -1.32,-0.14 -0.34,-0.09 -0.6,-0.23 -0.77,-0.4 -0.17,-0.17 -0.27,-0.36 -0.3,-0.58 -0.03,-0.22 -0.04,-0.49 -0.04,-0.84l0.27 0c0.07,0.44 0.26,0.79 0.57,1.04 0.31,0.25 0.75,0.38 1.32,0.38 0.51,0 0.89,-0.09 1.13,-0.27 0.24,-0.18 0.36,-0.4 0.36,-0.67 0,-0.27 -0.1,-0.5 -0.3,-0.68 -0.2,-0.18 -0.51,-0.36 -0.91,-0.53l-0.81 -0.34c-0.51,-0.21 -0.91,-0.45 -1.19,-0.74 -0.28,-0.28 -0.42,-0.65 -0.42,-1.09 0,-0.29 0.06,-0.54 0.17,-0.76 0.11,-0.22 0.27,-0.4 0.47,-0.55 0.2,-0.15 0.43,-0.26 0.7,-0.34 0.27,-0.08 0.57,-0.11 0.89,-0.11 0.51,0 0.94,0.05 1.27,0.14 0.33,0.09 0.58,0.23 0.76,0.4 0.17,0.17 0.27,0.36 0.3,0.58 0.03,0.22 0.04,0.49 0.04,0.84l-0.27 0c-0.07,-0.44 -0.26,-0.79 -0.56,-1.04 -0.3,-0.25 -0.72,-0.38 -1.26,-0.38 -0.44,0 -0.78,0.09 -1,0.27 -0.23,0.18 -0.34,0.4 -0.34,0.67 0,0.23 0.09,0.45 0.28,0.64 0.19,0.19 0.45,0.36 0.8,0.51l0.81 0.34c0.58,0.23 1.01,0.49 1.31,0.77 0.3,0.28 0.44,0.65 0.44,1.12zm5.31 -1.48l-0.4 0c-0.67,0 -1.2,0.12 -1.58,0.37 -0.38,0.25 -0.57,0.57 -0.57,0.98 0,0.22 0.04,0.4 0.11,0.57 0.07,0.16 0.17,0.3 0.28,0.4 0.12,0.11 0.25,0.19 0.4,0.24 0.15,0.05 0.31,0.07 0.49,0.07 0.33,0 0.6,-0.08 0.79,-0.25 0.19,-0.17 0.36,-0.35 0.49,-0.56l0 -1.82zm0.54 3.1l-0.47 -0.61 -0.07 0c-0.13,0.17 -0.36,0.34 -0.66,0.5 -0.31,0.16 -0.71,0.24 -1.23,0.24 -0.19,0 -0.4,-0.03 -0.62,-0.09 -0.22,-0.06 -0.44,-0.16 -0.63,-0.3 -0.2,-0.14 -0.36,-0.34 -0.5,-0.58 -0.13,-0.24 -0.2,-0.55 -0.2,-0.92 0,-0.37 0.09,-0.67 0.28,-0.92 0.19,-0.24 0.44,-0.44 0.76,-0.58 0.31,-0.14 0.68,-0.24 1.09,-0.3 0.41,-0.06 0.85,-0.09 1.31,-0.09l0.4 0c0,-0.47 -0.04,-0.85 -0.11,-1.15 -0.07,-0.3 -0.17,-0.53 -0.3,-0.7 -0.13,-0.17 -0.28,-0.28 -0.45,-0.34 -0.18,-0.06 -0.36,-0.09 -0.56,-0.09 -0.38,0 -0.69,0.08 -0.95,0.24 -0.26,0.16 -0.43,0.46 -0.53,0.9l-0.61 0c0,-0.23 0.01,-0.45 0.04,-0.65 0.03,-0.2 0.13,-0.39 0.3,-0.56 0.08,-0.08 0.2,-0.15 0.34,-0.22 0.15,-0.06 0.31,-0.11 0.49,-0.15 0.18,-0.04 0.37,-0.06 0.57,-0.08 0.2,-0.02 0.41,-0.03 0.61,-0.03 0.31,0 0.6,0.03 0.88,0.1 0.28,0.07 0.53,0.2 0.76,0.4 0.22,0.2 0.4,0.49 0.53,0.86 0.13,0.37 0.2,0.86 0.2,1.46l0 3.64 -0.67 0z"/>
     </g>
     <g>
      <path class="fil4" d="M1.97 21.33l-0.54 -1.43 0.27 0 0.32 0.91c0,0.01 0.01,0.03 0.01,0.04 0,0.01 0.01,0.03 0.01,0.05 0,0.02 0.01,0.04 0.01,0.06 0,0.02 0.01,0.04 0.01,0.06 0,-0.01 0,-0.02 0.01,-0.03 0,-0.01 0,-0.02 0.01,-0.03 0,-0.01 0,-0.02 0.01,-0.02 0,-0.01 0,-0.02 0.01,-0.02 0,-0.02 0.01,-0.03 0.01,-0.05 0,-0.01 0.01,-0.03 0.01,-0.04l0.31 -0.93 0.26 0 0.31 0.91c0.01,0.02 0.01,0.04 0.02,0.05 0.01,0.02 0.01,0.03 0.02,0.05 0,0.01 0,0.01 0,0.02 0,0.01 0,0.01 0,0.02 0,0 0,0.01 0,0.01 0,0 0,0 0,0.01 0,0.01 0,0.02 0.01,0.03 0,0.01 0,0.02 0.01,0.03 0,-0.01 0.01,-0.03 0.01,-0.04 0,-0.01 0.01,-0.03 0.01,-0.04 0,-0.01 0.01,-0.03 0.01,-0.05 0.01,-0.02 0.01,-0.04 0.02,-0.06l0.32 -0.93 0.25 0 -0.53 1.43 -0.2 0 -0.36 -1.04c-0,-0 -0,-0.01 -0.01,-0.01 -0,-0.01 -0,-0.01 -0.01,-0.02 -0,-0.01 -0,-0.01 -0.01,-0.02 -0,-0.01 -0,-0.01 -0.01,-0.02 -0,-0.01 -0,-0.02 -0.01,-0.03 -0,-0.01 -0.01,-0.02 -0.01,-0.04 -0,0.01 -0,0.03 -0.01,0.04 -0,0.01 -0.01,0.02 -0.01,0.03 -0,0.01 -0,0.02 -0.01,0.03 -0,0.01 -0.01,0.02 -0.01,0.03l-0.36 1.04 -0.19 0zm2.71 0l-0.54 -1.43 0.27 0 0.32 0.91c0,0.01 0.01,0.03 0.01,0.04 0,0.01 0.01,0.03 0.01,0.05 0,0.02 0.01,0.04 0.01,0.06 0,0.02 0.01,0.04 0.01,0.06 0,-0.01 0,-0.02 0.01,-0.03 0,-0.01 0,-0.02 0.01,-0.03 0,-0.01 0,-0.02 0.01,-0.02 0,-0.01 0,-0.02 0.01,-0.02 0,-0.02 0.01,-0.03 0.01,-0.05 0,-0.01 0.01,-0.03 0.01,-0.04l0.31 -0.93 0.26 0 0.31 0.91c0.01,0.02 0.01,0.04 0.02,0.05 0.01,0.02 0.01,0.03 0.02,0.05 0,0.01 0,0.01 0,0.02 0,0.01 0,0.01 0,0.02 0,0 0,0.01 0,0.01 0,0 0,0 0,0.01 0,0.01 0,0.02 0.01,0.03 0,0.01 0,0.02 0.01,0.03 0,-0.01 0.01,-0.03 0.01,-0.04 0,-0.01 0.01,-0.03 0.01,-0.04 0,-0.01 0.01,-0.03 0.01,-0.05 0.01,-0.02 0.01,-0.04 0.02,-0.06l0.32 -0.93 0.25 0 -0.53 1.43 -0.2 0 -0.36 -1.04c-0,-0 -0,-0.01 -0.01,-0.01 -0,-0.01 -0,-0.01 -0.01,-0.02 -0,-0.01 -0,-0.01 -0.01,-0.02 -0,-0.01 -0,-0.01 -0.01,-0.02 -0,-0.01 -0,-0.02 -0.01,-0.03 -0,-0.01 -0.01,-0.02 -0.01,-0.04 -0,0.01 -0,0.03 -0.01,0.04 -0,0.01 -0.01,0.02 -0.01,0.03 -0,0.01 -0,0.02 -0.01,0.03 -0,0.01 -0.01,0.02 -0.01,0.03l-0.36 1.04 -0.19 0zm2.71 0l-0.54 -1.43 0.27 0 0.32 0.91c0,0.01 0.01,0.03 0.01,0.04 0,0.01 0.01,0.03 0.01,0.05 0,0.02 0.01,0.04 0.01,0.06 0,0.02 0.01,0.04 0.01,0.06 0,-0.01 0,-0.02 0.01,-0.03 0,-0.01 0,-0.02 0.01,-0.03 0,-0.01 0,-0.02 0.01,-0.02 0,-0.01 0,-0.02 0.01,-0.02 0,-0.02 0.01,-0.03 0.01,-0.05 0,-0.01 0.01,-0.03 0.01,-0.04l0.31 -0.93 0.26 0 0.31 0.91c0.01,0.02 0.01,0.04 0.02,0.05 0.01,0.02 0.01,0.03 0.02,0.05 0,0.01 0,0.01 0,0.02 0,0.01 0,0.01 0,0.02 0,0 0,0.01 0,0.01 0,0 0,0 0,0.01 0,0.01 0,0.02 0.01,0.03 0,0.01 0,0.02 0.01,0.03 0,-0.01 0.01,-0.03 0.01,-0.04 0,-0.01 0.01,-0.03 0.01,-0.04 0,-0.01 0.01,-0.03 0.01,-0.05 0.01,-0.02 0.01,-0.04 0.02,-0.06l0.32 -0.93 0.25 0 -0.53 1.43 -0.2 0 -0.36 -1.04c-0,-0 -0,-0.01 -0.01,-0.01 -0,-0.01 -0,-0.01 -0.01,-0.02 -0,-0.01 -0,-0.01 -0.01,-0.02 -0,-0.01 -0,-0.01 -0.01,-0.02 -0,-0.01 -0,-0.02 -0.01,-0.03 -0,-0.01 -0.01,-0.02 -0.01,-0.04 -0,0.01 -0,0.03 -0.01,0.04 -0,0.01 -0.01,0.02 -0.01,0.03 -0,0.01 -0,0.02 -0.01,0.03 -0,0.01 -0.01,0.02 -0.01,0.03l-0.36 1.04 -0.19 0zm2.14 -0.14c0,-0.02 0,-0.05 0.01,-0.07 0.01,-0.02 0.02,-0.04 0.04,-0.05 0.02,-0.02 0.04,-0.03 0.06,-0.04 0.02,-0.01 0.04,-0.01 0.07,-0.01 0.03,0 0.05,0 0.07,0.01 0.02,0.01 0.04,0.02 0.05,0.04 0.02,0.02 0.03,0.03 0.04,0.05 0.01,0.02 0.01,0.04 0.01,0.07 0,0.02 -0,0.05 -0.01,0.07 -0.01,0.02 -0.02,0.04 -0.04,0.06 -0.02,0.01 -0.04,0.02 -0.06,0.03 -0.02,0.01 -0.04,0.01 -0.07,0.01 -0.02,0 -0.05,-0 -0.07,-0.01 -0.02,-0.01 -0.04,-0.02 -0.06,-0.04 -0.02,-0.02 -0.03,-0.03 -0.04,-0.05 -0.01,-0.02 -0.01,-0.04 -0.01,-0.07l0 -0zm2.59 -1.94l0 2.07 -0.23 0 0 -0.22c-0.03,0.04 -0.07,0.08 -0.11,0.11 -0.04,0.03 -0.08,0.05 -0.13,0.07 -0.05,0.02 -0.09,0.03 -0.15,0.04 -0.05,0.01 -0.1,0.01 -0.16,0.01 -0.11,0 -0.21,-0.02 -0.3,-0.05 -0.09,-0.03 -0.17,-0.08 -0.24,-0.15 -0.07,-0.07 -0.12,-0.15 -0.15,-0.24 -0.03,-0.09 -0.05,-0.19 -0.05,-0.3 0,-0.05 0,-0.1 0.01,-0.15 0.01,-0.05 0.02,-0.09 0.04,-0.14 0.02,-0.04 0.04,-0.08 0.06,-0.12 0.02,-0.04 0.05,-0.07 0.09,-0.11 0.04,-0.04 0.08,-0.07 0.12,-0.1 0.04,-0.03 0.09,-0.05 0.13,-0.07 0.05,-0.02 0.1,-0.04 0.15,-0.04 0.05,-0.01 0.1,-0.02 0.15,-0.02 0.06,0 0.11,0.01 0.16,0.02 0.05,0.01 0.1,0.02 0.14,0.04 0.04,0.02 0.08,0.04 0.12,0.07 0.04,0.03 0.07,0.06 0.1,0.1l0 -0.85 0.26 0zm-0.75 0.83c-0.07,0 -0.14,0.02 -0.2,0.04 -0.06,0.02 -0.12,0.06 -0.16,0.11 -0.05,0.05 -0.08,0.1 -0.11,0.17 -0.02,0.06 -0.04,0.13 -0.04,0.21 0,0.08 0.01,0.15 0.04,0.21 0.02,0.06 0.06,0.12 0.11,0.17 0.05,0.05 0.1,0.09 0.16,0.11 0.06,0.02 0.13,0.04 0.2,0.04 0.07,0 0.14,-0.01 0.21,-0.04 0.06,-0.02 0.12,-0.06 0.16,-0.11 0.05,-0.05 0.08,-0.1 0.11,-0.17 0.02,-0.06 0.04,-0.13 0.04,-0.21 0,-0.07 -0.01,-0.14 -0.04,-0.21 -0.02,-0.06 -0.06,-0.12 -0.11,-0.17 -0.05,-0.05 -0.1,-0.08 -0.16,-0.11 -0.06,-0.02 -0.13,-0.04 -0.21,-0.04l0 -0zm1.57 1.24l0 -1.43 0.26 0 0 1.43 -0.26 0zm-0.04 -1.92c0,-0.02 0,-0.04 0.01,-0.06 0.01,-0.02 0.02,-0.04 0.04,-0.06 0.02,-0.02 0.04,-0.03 0.06,-0.04 0.02,-0.01 0.04,-0.01 0.07,-0.01 0.02,0 0.05,0 0.07,0.01 0.02,0.01 0.04,0.02 0.06,0.04 0.02,0.02 0.03,0.03 0.04,0.05 0.01,0.02 0.01,0.04 0.01,0.07 0,0.02 -0,0.05 -0.01,0.07 -0.01,0.02 -0.02,0.04 -0.04,0.06 -0.02,0.02 -0.04,0.03 -0.06,0.04 -0.02,0.01 -0.04,0.01 -0.07,0.01 -0.02,0 -0.05,-0 -0.07,-0.01 -0.02,-0.01 -0.04,-0.02 -0.06,-0.04 -0.02,-0.02 -0.03,-0.03 -0.04,-0.05 -0.01,-0.02 -0.01,-0.04 -0.01,-0.07l0 -0zm1.58 1.92l-0.63 -1.43 0.28 0 0.39 0.99c0,0 0,0.01 0,0.01 0,0 0.01,0.01 0.01,0.01 0.01,0.03 0.02,0.06 0.03,0.08 0.01,0.02 0.02,0.05 0.02,0.07 0.01,-0.02 0.01,-0.04 0.02,-0.06 0.01,-0.02 0.01,-0.03 0.01,-0.04 0,-0.01 0.01,-0.02 0.01,-0.03 0,-0.01 0.01,-0.02 0.01,-0.02l0.41 -1.01 0.27 0 -0.63 1.43 -0.21 0zm1.48 0l0 -1.43 0.26 0 0 1.43 -0.26 0zm-0.04 -1.92c0,-0.02 0,-0.04 0.01,-0.06 0.01,-0.02 0.02,-0.04 0.04,-0.06 0.02,-0.02 0.04,-0.03 0.06,-0.04 0.02,-0.01 0.04,-0.01 0.07,-0.01 0.02,0 0.05,0 0.07,0.01 0.02,0.01 0.04,0.02 0.06,0.04 0.02,0.02 0.03,0.03 0.04,0.05 0.01,0.02 0.01,0.04 0.01,0.07 0,0.02 -0,0.05 -0.01,0.07 -0.01,0.02 -0.02,0.04 -0.04,0.06 -0.02,0.02 -0.04,0.03 -0.06,0.04 -0.02,0.01 -0.04,0.01 -0.07,0.01 -0.02,0 -0.05,-0 -0.07,-0.01 -0.02,-0.01 -0.04,-0.02 -0.06,-0.04 -0.02,-0.02 -0.03,-0.03 -0.04,-0.05 -0.01,-0.02 -0.01,-0.04 -0.01,-0.07l0 -0zm1.29 1.5c0,0.04 0.01,0.08 0.02,0.11 0.01,0.03 0.03,0.06 0.05,0.08 0.02,0.02 0.05,0.03 0.08,0.04 0.03,0.01 0.07,0.02 0.11,0.02 0.04,0 0.08,-0.01 0.11,-0.02 0.03,-0.01 0.06,-0.03 0.09,-0.05 0.03,-0.02 0.04,-0.04 0.06,-0.07 0.01,-0.03 0.02,-0.06 0.02,-0.09 0,-0.05 -0.02,-0.09 -0.07,-0.12 -0.05,-0.04 -0.12,-0.07 -0.21,-0.09 -0.01,-0 -0.03,-0.01 -0.04,-0.01 -0.01,-0 -0.02,-0.01 -0.03,-0.01 -0.07,-0.02 -0.14,-0.05 -0.19,-0.08 -0.05,-0.03 -0.1,-0.06 -0.13,-0.09 -0.03,-0.03 -0.06,-0.07 -0.08,-0.12 -0.02,-0.04 -0.03,-0.09 -0.03,-0.14 0,-0.06 0.01,-0.11 0.04,-0.16 0.02,-0.05 0.06,-0.09 0.1,-0.13 0.05,-0.04 0.1,-0.07 0.16,-0.09 0.06,-0.02 0.12,-0.03 0.19,-0.03 0.08,0 0.15,0.01 0.21,0.03 0.06,0.02 0.11,0.05 0.16,0.09 0.04,0.04 0.08,0.09 0.1,0.14 0.02,0.05 0.03,0.11 0.03,0.18l0 0.01 -0.24 0c-0,-0.03 -0.01,-0.07 -0.02,-0.1 -0.01,-0.03 -0.03,-0.05 -0.05,-0.07 -0.02,-0.02 -0.04,-0.04 -0.08,-0.05 -0.03,-0.01 -0.06,-0.01 -0.1,-0.01 -0.04,0 -0.07,0 -0.1,0.01 -0.03,0.01 -0.06,0.02 -0.08,0.04 -0.02,0.02 -0.04,0.04 -0.05,0.06 -0.01,0.02 -0.02,0.05 -0.02,0.08 0,0.03 0,0.05 0.01,0.07 0.01,0.02 0.02,0.04 0.04,0.05 0.02,0.01 0.05,0.03 0.08,0.05 0.04,0.02 0.09,0.03 0.15,0.05 0,0 0.01,0 0.01,0 0.01,0 0.01,0 0.02,0 0.08,0.02 0.15,0.05 0.21,0.07 0.05,0.02 0.09,0.04 0.12,0.06 0.02,0.02 0.04,0.04 0.06,0.06 0.02,0.02 0.03,0.05 0.04,0.07 0.01,0.03 0.02,0.05 0.03,0.08 0.01,0.03 0.01,0.06 0.01,0.09 0,0.06 -0.01,0.12 -0.03,0.18 -0.02,0.05 -0.06,0.1 -0.11,0.14 -0.05,0.04 -0.1,0.07 -0.16,0.09 -0.06,0.02 -0.13,0.03 -0.21,0.03 -0.08,0 -0.15,-0.01 -0.22,-0.03 -0.06,-0.02 -0.12,-0.05 -0.16,-0.09 -0.05,-0.04 -0.08,-0.09 -0.1,-0.14 -0.02,-0.06 -0.04,-0.12 -0.04,-0.19l0.25 -0zm2.18 0.22c0.07,0 0.14,-0.01 0.2,-0.03 0.06,-0.02 0.11,-0.06 0.16,-0.11 0.05,-0.05 0.08,-0.1 0.11,-0.17 0.02,-0.06 0.04,-0.13 0.04,-0.21 0,-0.07 -0.01,-0.14 -0.04,-0.21 -0.02,-0.06 -0.06,-0.12 -0.11,-0.17 -0.05,-0.05 -0.1,-0.09 -0.16,-0.11 -0.06,-0.02 -0.13,-0.04 -0.2,-0.04 -0.07,0 -0.14,0.01 -0.2,0.04 -0.06,0.02 -0.11,0.06 -0.16,0.11 -0.05,0.05 -0.08,0.1 -0.11,0.17 -0.02,0.06 -0.04,0.13 -0.04,0.21 0,0.08 0.01,0.15 0.04,0.21 0.02,0.06 0.06,0.12 0.11,0.17 0.05,0.05 0.1,0.09 0.16,0.11 0.06,0.02 0.12,0.04 0.2,0.04l0 -0zm0.74 0.2l-0.25 0 0 -0.23c-0.03,0.04 -0.06,0.08 -0.1,0.11 -0.04,0.03 -0.08,0.06 -0.12,0.08 -0.04,0.02 -0.09,0.04 -0.14,0.04 -0.05,0.01 -0.1,0.01 -0.16,0.01 -0.05,0 -0.1,-0 -0.15,-0.01 -0.05,-0.01 -0.09,-0.02 -0.14,-0.04 -0.05,-0.02 -0.09,-0.04 -0.13,-0.07 -0.04,-0.03 -0.08,-0.06 -0.11,-0.1 -0.03,-0.03 -0.06,-0.07 -0.09,-0.11 -0.02,-0.04 -0.05,-0.08 -0.06,-0.12 -0.02,-0.04 -0.03,-0.09 -0.04,-0.14 -0.01,-0.05 -0.01,-0.1 -0.01,-0.15 0,-0.11 0.02,-0.21 0.05,-0.3 0.03,-0.09 0.08,-0.17 0.15,-0.24 0.07,-0.07 0.14,-0.12 0.23,-0.15 0.09,-0.03 0.19,-0.05 0.3,-0.05 0.05,0 0.11,0.01 0.16,0.02 0.05,0.01 0.1,0.03 0.15,0.05 0.05,0.02 0.09,0.05 0.13,0.08 0.04,0.03 0.07,0.07 0.11,0.11l0 -0.24 0.24 0 0 1.43zm0.98 -0.42c0,0.04 0.01,0.08 0.02,0.11 0.01,0.03 0.03,0.06 0.05,0.08 0.02,0.02 0.05,0.03 0.08,0.04 0.03,0.01 0.07,0.02 0.11,0.02 0.04,0 0.08,-0.01 0.11,-0.02 0.03,-0.01 0.06,-0.03 0.09,-0.05 0.03,-0.02 0.04,-0.04 0.06,-0.07 0.01,-0.03 0.02,-0.06 0.02,-0.09 0,-0.05 -0.02,-0.09 -0.07,-0.12 -0.05,-0.04 -0.12,-0.07 -0.21,-0.09 -0.01,-0 -0.03,-0.01 -0.04,-0.01 -0.01,-0 -0.02,-0.01 -0.03,-0.01 -0.07,-0.02 -0.14,-0.05 -0.19,-0.08 -0.05,-0.03 -0.1,-0.06 -0.13,-0.09 -0.03,-0.03 -0.06,-0.07 -0.08,-0.12 -0.02,-0.04 -0.03,-0.09 -0.03,-0.14 0,-0.06 0.01,-0.11 0.04,-0.16 0.02,-0.05 0.06,-0.09 0.1,-0.13 0.05,-0.04 0.1,-0.07 0.16,-0.09 0.06,-0.02 0.12,-0.03 0.19,-0.03 0.08,0 0.15,0.01 0.21,0.03 0.06,0.02 0.11,0.05 0.16,0.09 0.04,0.04 0.08,0.09 0.1,0.14 0.02,0.05 0.03,0.11 0.03,0.18l0 0.01 -0.24 0c-0,-0.03 -0.01,-0.07 -0.02,-0.1 -0.01,-0.03 -0.03,-0.05 -0.05,-0.07 -0.02,-0.02 -0.04,-0.04 -0.08,-0.05 -0.03,-0.01 -0.06,-0.01 -0.1,-0.01 -0.04,0 -0.07,0 -0.1,0.01 -0.03,0.01 -0.06,0.02 -0.08,0.04 -0.02,0.02 -0.04,0.04 -0.05,0.06 -0.01,0.02 -0.02,0.05 -0.02,0.08 0,0.03 0,0.05 0.01,0.07 0.01,0.02 0.02,0.04 0.04,0.05 0.02,0.01 0.05,0.03 0.08,0.05 0.04,0.02 0.09,0.03 0.15,0.05 0,0 0.01,0 0.01,0 0.01,0 0.01,0 0.02,0 0.08,0.02 0.15,0.05 0.21,0.07 0.05,0.02 0.09,0.04 0.12,0.06 0.02,0.02 0.04,0.04 0.06,0.06 0.02,0.02 0.03,0.05 0.04,0.07 0.01,0.03 0.02,0.05 0.03,0.08 0.01,0.03 0.01,0.06 0.01,0.09 0,0.06 -0.01,0.12 -0.03,0.18 -0.02,0.05 -0.06,0.1 -0.11,0.14 -0.05,0.04 -0.1,0.07 -0.16,0.09 -0.06,0.02 -0.13,0.03 -0.21,0.03 -0.08,0 -0.15,-0.01 -0.22,-0.03 -0.06,-0.02 -0.12,-0.05 -0.16,-0.09 -0.05,-0.04 -0.08,-0.09 -0.1,-0.14 -0.02,-0.06 -0.04,-0.12 -0.04,-0.19l0.25 -0zm1.55 0.12l0 -0.93 -0.19 0 0 -0.21 0.19 0 0 -0.35 0.26 0 0 0.35 0.24 0 0 0.21 -0.24 0 0 0.89c0,0.02 0,0.04 0.01,0.06 0,0.02 0.01,0.03 0.02,0.04 0.01,0.01 0.02,0.02 0.04,0.02 0.01,0 0.03,0.01 0.05,0.01l0.13 -0 0 0.24 -0.15 0c-0.06,0 -0.12,-0.01 -0.16,-0.02 -0.05,-0.01 -0.08,-0.03 -0.11,-0.05 -0.03,-0.03 -0.05,-0.06 -0.06,-0.1 -0.01,-0.04 -0.02,-0.09 -0.02,-0.15l0 -0zm1.87 0.11c0.07,0 0.13,-0.01 0.19,-0.03 0.06,-0.02 0.11,-0.06 0.15,-0.11 0.04,-0.05 0.08,-0.11 0.1,-0.17 0.02,-0.06 0.03,-0.13 0.03,-0.21 0,-0.08 -0.01,-0.15 -0.03,-0.21 -0.02,-0.06 -0.05,-0.12 -0.1,-0.17 -0.04,-0.05 -0.09,-0.09 -0.15,-0.11 -0.06,-0.03 -0.12,-0.04 -0.19,-0.04 -0.07,0 -0.13,0.01 -0.19,0.04 -0.06,0.03 -0.11,0.06 -0.15,0.11 -0.04,0.05 -0.08,0.11 -0.1,0.17 -0.02,0.06 -0.03,0.13 -0.03,0.21 0,0.08 0.01,0.15 0.03,0.21 0.02,0.06 0.05,0.12 0.1,0.17 0.05,0.05 0.1,0.09 0.15,0.11 0.06,0.02 0.12,0.04 0.19,0.04l0 -0zm0 -1.29c0.05,0 0.1,0.01 0.15,0.02 0.05,0.01 0.09,0.02 0.14,0.04 0.05,0.02 0.09,0.04 0.13,0.07 0.04,0.03 0.08,0.06 0.11,0.1 0.03,0.03 0.07,0.07 0.09,0.11 0.03,0.04 0.05,0.08 0.07,0.13 0.02,0.05 0.03,0.09 0.04,0.14 0.01,0.05 0.01,0.1 0.01,0.15 0,0.05 -0,0.1 -0.01,0.15 -0.01,0.05 -0.02,0.1 -0.04,0.15 -0.02,0.05 -0.04,0.09 -0.07,0.13 -0.03,0.04 -0.06,0.08 -0.09,0.11 -0.03,0.03 -0.07,0.07 -0.11,0.09 -0.04,0.03 -0.08,0.05 -0.13,0.07 -0.05,0.02 -0.09,0.03 -0.14,0.04 -0.05,0.01 -0.1,0.01 -0.15,0.01 -0.05,0 -0.1,-0 -0.15,-0.01 -0.05,-0.01 -0.09,-0.02 -0.14,-0.04 -0.05,-0.02 -0.09,-0.04 -0.13,-0.07 -0.04,-0.03 -0.08,-0.06 -0.11,-0.09 -0.03,-0.04 -0.07,-0.07 -0.09,-0.11 -0.03,-0.04 -0.05,-0.08 -0.07,-0.13 -0.02,-0.05 -0.03,-0.09 -0.04,-0.14 -0.01,-0.05 -0.01,-0.1 -0.01,-0.16 0,-0.05 0,-0.1 0.01,-0.15 0.01,-0.05 0.02,-0.1 0.04,-0.14 0.02,-0.05 0.04,-0.09 0.07,-0.13 0.03,-0.04 0.06,-0.08 0.09,-0.11 0.03,-0.04 0.07,-0.07 0.11,-0.09 0.04,-0.03 0.08,-0.05 0.13,-0.07 0.04,-0.02 0.09,-0.03 0.14,-0.04 0.05,-0.01 0.1,-0.01 0.15,-0.01l0 -0zm1.47 1.47l0 -1.43 0.24 0 0 0.19c0.02,-0.03 0.05,-0.07 0.07,-0.09 0.03,-0.03 0.06,-0.05 0.08,-0.07 0.03,-0.02 0.06,-0.03 0.1,-0.04 0.04,-0.01 0.08,-0.01 0.12,-0.01 0.01,0 0.02,0 0.03,0 0.01,0 0.02,0 0.02,0 0,0 0,0 0.01,0 0,0 0,0 0.01,0 0,0 0,0 0,0 0,0 0,0 0,0 0,0 0.01,0 0.01,0 0,0 0.01,0 0.01,0l0 0.26c-0.01,-0 -0.02,-0 -0.04,-0.01 -0.01,-0 -0.02,-0 -0.03,-0.01 -0.01,-0 -0.02,-0 -0.03,-0 -0.01,0 -0.02,0 -0.03,0 -0.05,0 -0.1,0.01 -0.14,0.02 -0.04,0.02 -0.08,0.04 -0.1,0.08 -0.03,0.03 -0.05,0.08 -0.06,0.13 -0.01,0.05 -0.02,0.11 -0.02,0.18l0 0.8 -0.25 0zm1.52 -0.84l0.96 0c-0.01,-0.06 -0.02,-0.11 -0.05,-0.16 -0.03,-0.05 -0.06,-0.09 -0.1,-0.13 -0.04,-0.04 -0.09,-0.07 -0.15,-0.09 -0.05,-0.02 -0.11,-0.03 -0.17,-0.03 -0.06,0 -0.12,0.01 -0.18,0.03 -0.05,0.02 -0.1,0.05 -0.15,0.09 -0.05,0.04 -0.08,0.08 -0.11,0.13 -0.03,0.05 -0.04,0.1 -0.05,0.16l0 -0zm0 0.21c0.01,0.07 0.02,0.13 0.05,0.18 0.03,0.05 0.06,0.1 0.11,0.14 0.05,0.04 0.1,0.07 0.16,0.09 0.06,0.02 0.13,0.03 0.2,0.03 0.05,0 0.09,-0 0.14,-0.01 0.04,-0.01 0.08,-0.03 0.12,-0.05 0.04,-0.02 0.08,-0.04 0.11,-0.07 0.04,-0.03 0.07,-0.06 0.11,-0.1l0.18 0.14c-0.05,0.05 -0.09,0.1 -0.14,0.14 -0.05,0.04 -0.1,0.07 -0.16,0.1 -0.05,0.02 -0.11,0.04 -0.17,0.05 -0.06,0.01 -0.13,0.02 -0.2,0.02 -0.06,0 -0.11,-0.01 -0.16,-0.01 -0.05,-0.01 -0.1,-0.02 -0.15,-0.04 -0.05,-0.02 -0.09,-0.04 -0.14,-0.07 -0.04,-0.03 -0.08,-0.06 -0.12,-0.1 -0.03,-0.03 -0.06,-0.07 -0.08,-0.11 -0.02,-0.04 -0.04,-0.08 -0.06,-0.12 -0.02,-0.05 -0.03,-0.09 -0.04,-0.14 -0.01,-0.05 -0.01,-0.09 -0.01,-0.14 0,-0.11 0.02,-0.22 0.05,-0.31 0.03,-0.09 0.08,-0.17 0.15,-0.24 0.07,-0.07 0.15,-0.12 0.24,-0.16 0.09,-0.04 0.19,-0.05 0.3,-0.05 0.11,0 0.21,0.02 0.31,0.06 0.09,0.04 0.17,0.09 0.24,0.17 0.07,0.07 0.12,0.16 0.15,0.26 0.03,0.1 0.05,0.21 0.05,0.33l0 0.02 -1.24 0zm1.96 0.5c0,-0.02 0,-0.05 0.01,-0.07 0.01,-0.02 0.02,-0.04 0.04,-0.05 0.02,-0.02 0.04,-0.03 0.06,-0.04 0.02,-0.01 0.04,-0.01 0.07,-0.01 0.03,0 0.05,0 0.07,0.01 0.02,0.01 0.04,0.02 0.05,0.04 0.02,0.02 0.03,0.03 0.04,0.05 0.01,0.02 0.01,0.04 0.01,0.07 0,0.02 -0,0.05 -0.01,0.07 -0.01,0.02 -0.02,0.04 -0.04,0.06 -0.02,0.01 -0.04,0.02 -0.06,0.03 -0.02,0.01 -0.04,0.01 -0.07,0.01 -0.02,0 -0.05,-0 -0.07,-0.01 -0.02,-0.01 -0.04,-0.02 -0.06,-0.04 -0.02,-0.02 -0.03,-0.03 -0.04,-0.05 -0.01,-0.02 -0.01,-0.04 -0.01,-0.07l0 -0zm2.14 -0.96c-0.02,-0.02 -0.05,-0.04 -0.07,-0.06 -0.03,-0.02 -0.05,-0.03 -0.08,-0.05 -0.03,-0.01 -0.06,-0.02 -0.09,-0.03 -0.03,-0.01 -0.06,-0.01 -0.1,-0.01 -0.07,0 -0.13,0.01 -0.19,0.04 -0.06,0.03 -0.11,0.06 -0.15,0.11 -0.04,0.05 -0.08,0.11 -0.1,0.17 -0.02,0.06 -0.03,0.13 -0.03,0.21 0,0.08 0.01,0.15 0.03,0.21 0.02,0.06 0.05,0.12 0.1,0.17 0.04,0.05 0.09,0.09 0.15,0.11 0.06,0.02 0.12,0.04 0.19,0.04 0.04,0 0.07,-0 0.11,-0.01 0.03,-0.01 0.07,-0.02 0.09,-0.03 0.03,-0.01 0.06,-0.03 0.08,-0.05 0.03,-0.02 0.05,-0.04 0.07,-0.07l0.17 0.18c-0.04,0.04 -0.08,0.07 -0.12,0.09 -0.04,0.03 -0.08,0.05 -0.12,0.06 -0.04,0.01 -0.08,0.02 -0.13,0.03 -0.05,0.01 -0.1,0.01 -0.15,0.01 -0.05,0 -0.1,-0 -0.15,-0.01 -0.05,-0.01 -0.1,-0.02 -0.14,-0.04 -0.05,-0.02 -0.09,-0.04 -0.13,-0.07 -0.04,-0.03 -0.07,-0.05 -0.11,-0.09 -0.03,-0.04 -0.07,-0.08 -0.09,-0.12 -0.03,-0.04 -0.05,-0.08 -0.07,-0.13 -0.02,-0.05 -0.03,-0.1 -0.04,-0.15 -0.01,-0.05 -0.01,-0.1 -0.01,-0.16 0,-0.05 0,-0.1 0.01,-0.16 0.01,-0.05 0.02,-0.1 0.04,-0.15 0.02,-0.05 0.04,-0.09 0.07,-0.13 0.03,-0.04 0.06,-0.08 0.09,-0.11 0.03,-0.03 0.07,-0.06 0.11,-0.09 0.04,-0.03 0.08,-0.05 0.12,-0.07 0.05,-0.02 0.09,-0.03 0.14,-0.04 0.05,-0.01 0.1,-0.01 0.15,-0.01 0.05,0 0.1,0 0.15,0.01 0.05,0.01 0.09,0.02 0.13,0.03 0.04,0.01 0.08,0.03 0.12,0.06 0.04,0.02 0.07,0.05 0.11,0.08l-0.16 0.19z"/>
      <path class="fil4" d="M33.12 21.15c0.07,0 0.13,-0.01 0.19,-0.03 0.06,-0.02 0.11,-0.06 0.15,-0.11 0.04,-0.05 0.08,-0.11 0.1,-0.17 0.02,-0.06 0.03,-0.13 0.03,-0.21 0,-0.08 -0.01,-0.15 -0.03,-0.21 -0.02,-0.06 -0.05,-0.12 -0.1,-0.17 -0.04,-0.05 -0.09,-0.09 -0.15,-0.11 -0.06,-0.03 -0.12,-0.04 -0.19,-0.04 -0.07,0 -0.13,0.01 -0.19,0.04 -0.06,0.03 -0.11,0.06 -0.15,0.11 -0.04,0.05 -0.08,0.11 -0.1,0.17 -0.02,0.06 -0.03,0.13 -0.03,0.21 0,0.08 0.01,0.15 0.03,0.21 0.02,0.06 0.05,0.12 0.1,0.17 0.05,0.05 0.1,0.09 0.15,0.11 0.06,0.02 0.12,0.04 0.19,0.04l0 -0zm0 -1.29c0.05,0 0.1,0.01 0.15,0.02 0.05,0.01 0.09,0.02 0.14,0.04 0.05,0.02 0.09,0.04 0.13,0.07 0.04,0.03 0.08,0.06 0.11,0.1 0.03,0.03 0.07,0.07 0.09,0.11 0.03,0.04 0.05,0.08 0.07,0.13 0.02,0.05 0.03,0.09 0.04,0.14 0.01,0.05 0.01,0.1 0.01,0.15 0,0.05 -0,0.1 -0.01,0.15 -0.01,0.05 -0.02,0.1 -0.04,0.15 -0.02,0.05 -0.04,0.09 -0.07,0.13 -0.03,0.04 -0.06,0.08 -0.09,0.11 -0.03,0.03 -0.07,0.07 -0.11,0.09 -0.04,0.03 -0.08,0.05 -0.13,0.07 -0.05,0.02 -0.09,0.03 -0.14,0.04 -0.05,0.01 -0.1,0.01 -0.15,0.01 -0.05,0 -0.1,-0 -0.15,-0.01 -0.05,-0.01 -0.09,-0.02 -0.14,-0.04 -0.05,-0.02 -0.09,-0.04 -0.13,-0.07 -0.04,-0.03 -0.08,-0.06 -0.11,-0.09 -0.03,-0.04 -0.07,-0.07 -0.09,-0.11 -0.03,-0.04 -0.05,-0.08 -0.07,-0.13 -0.02,-0.05 -0.03,-0.09 -0.04,-0.14 -0.01,-0.05 -0.01,-0.1 -0.01,-0.16 0,-0.05 0,-0.1 0.01,-0.15 0.01,-0.05 0.02,-0.1 0.04,-0.14 0.02,-0.05 0.04,-0.09 0.07,-0.13 0.03,-0.04 0.06,-0.08 0.09,-0.11 0.03,-0.04 0.07,-0.07 0.11,-0.09 0.04,-0.03 0.08,-0.05 0.13,-0.07 0.04,-0.02 0.09,-0.03 0.14,-0.04 0.05,-0.01 0.1,-0.01 0.15,-0.01l0 -0zm1.71 0.2c0.03,-0.03 0.06,-0.06 0.09,-0.08 0.03,-0.02 0.06,-0.05 0.1,-0.06 0.03,-0.01 0.07,-0.03 0.11,-0.03 0.04,-0.01 0.07,-0.01 0.11,-0.01 0.04,0 0.08,0 0.12,0.01 0.04,0.01 0.07,0.02 0.11,0.04 0.03,0.02 0.06,0.04 0.1,0.07 0.03,0.03 0.06,0.06 0.09,0.1 0.03,-0.04 0.07,-0.07 0.1,-0.1 0.04,-0.03 0.07,-0.05 0.11,-0.07 0.04,-0.02 0.08,-0.03 0.13,-0.04 0.04,-0.01 0.09,-0.01 0.14,-0.01 0.08,0 0.15,0.01 0.22,0.04 0.06,0.03 0.12,0.07 0.17,0.13 0.05,0.06 0.08,0.12 0.11,0.2 0.02,0.08 0.03,0.16 0.03,0.26l0 0.83 -0.25 0 0 -0.8c0,-0.07 -0.01,-0.14 -0.02,-0.19 -0.01,-0.05 -0.03,-0.1 -0.06,-0.13 -0.02,-0.04 -0.05,-0.06 -0.09,-0.08 -0.04,-0.02 -0.08,-0.03 -0.14,-0.03 -0.06,0 -0.11,0.01 -0.16,0.03 -0.04,0.02 -0.08,0.05 -0.11,0.08 -0.03,0.04 -0.05,0.08 -0.07,0.14 -0.01,0.06 -0.02,0.12 -0.02,0.2l0 0.79 -0.24 0 0 -0.8c0,-0.07 -0.01,-0.14 -0.02,-0.19 -0.01,-0.05 -0.03,-0.1 -0.06,-0.13 -0.02,-0.04 -0.05,-0.06 -0.09,-0.08 -0.04,-0.02 -0.08,-0.03 -0.14,-0.03 -0.06,0 -0.11,0.01 -0.16,0.03 -0.04,0.02 -0.08,0.05 -0.11,0.08 -0.03,0.04 -0.05,0.08 -0.07,0.14 -0.01,0.06 -0.02,0.12 -0.02,0.2l0 0.79 -0.25 0 0 -1.43 0.25 0 0 0.16z"/>
     </g>
    </g>
   </g>
  </g>
  <path class="fil5" d="M-0 0l37.38 0 0 22.43 -37.38 0 0 -22.43z"/>
 </g>
</svg>
