<?xml version="1.0" encoding="utf-8"?>
<!-- Generator: Adobe Illustrator 19.2.1, SVG Export Plug-In . SVG Version: 6.00 Build 0)  -->
<svg version="1.1" id="Layer_1" xmlns="http://www.w3.org/2000/svg" xmlns:xlink="http://www.w3.org/1999/xlink" x="0px" y="0px"
	 viewBox="0 0 98.4 75.8" style="enable-background:new 0 0 98.4 75.8;" xml:space="preserve">
<style type="text/css">
	.st0{enable-background:new    ;}
	.st1{fill:#666666;}
	.st2{fill:#4DAA51;}
	.st3{fill:#9DC117;}
</style>
<title>ruchira-logo</title>
<g class="st0">
	<path class="st1" d="M4,72.7c0.1,0,0.1,0,0.1,0.1l0.4,0.4c-0.2,0.3-0.5,0.4-0.8,0.6C3.4,73.9,3.1,74,2.7,74c-0.4,0-0.7-0.1-1-0.2
		c-0.3-0.1-0.6-0.3-0.8-0.5c-0.2-0.2-0.4-0.5-0.5-0.8c-0.1-0.3-0.2-0.7-0.2-1c0-0.4,0.1-0.7,0.2-1c0.1-0.3,0.3-0.6,0.5-0.8
		c0.2-0.2,0.5-0.4,0.8-0.5c0.3-0.1,0.6-0.2,1-0.2c0.4,0,0.7,0.1,1,0.2c0.3,0.1,0.5,0.3,0.7,0.5l-0.3,0.4c0,0,0,0.1-0.1,0.1
		c0,0-0.1,0-0.1,0c0,0-0.1,0-0.1,0c0,0-0.1,0-0.1-0.1c0,0-0.1-0.1-0.2-0.1c-0.1,0-0.1-0.1-0.2-0.1c-0.1,0-0.2-0.1-0.3-0.1
		c-0.1,0-0.2,0-0.3,0c-0.2,0-0.4,0-0.6,0.1c-0.2,0.1-0.3,0.2-0.5,0.3c-0.1,0.2-0.2,0.3-0.3,0.6c-0.1,0.2-0.1,0.5-0.1,0.7
		c0,0.3,0,0.5,0.1,0.8c0.1,0.2,0.2,0.4,0.3,0.6C1.8,72.9,2,73,2.1,73.1c0.2,0.1,0.4,0.1,0.6,0.1c0.1,0,0.2,0,0.3,0
		c0.1,0,0.2,0,0.3-0.1c0.1,0,0.2-0.1,0.2-0.1c0.1,0,0.2-0.1,0.2-0.2C3.9,72.8,3.9,72.8,4,72.7C3.9,72.7,4,72.7,4,72.7z"/>
</g>
<g class="st0">
	<path class="st1" d="M10,71.4c0,0.4-0.1,0.7-0.2,1c-0.1,0.3-0.3,0.6-0.5,0.8c-0.2,0.2-0.5,0.4-0.8,0.5c-0.3,0.1-0.7,0.2-1,0.2
		c-0.4,0-0.7-0.1-1-0.2c-0.3-0.1-0.6-0.3-0.8-0.5c-0.2-0.2-0.4-0.5-0.5-0.8c-0.1-0.3-0.2-0.7-0.2-1c0-0.4,0.1-0.7,0.2-1
		c0.1-0.3,0.3-0.6,0.5-0.8c0.2-0.2,0.5-0.4,0.8-0.5c0.3-0.1,0.7-0.2,1-0.2c0.3,0,0.5,0,0.7,0.1c0.2,0.1,0.4,0.1,0.6,0.2
		c0.2,0.1,0.4,0.2,0.5,0.4c0.1,0.2,0.3,0.3,0.4,0.5c0.1,0.2,0.2,0.4,0.2,0.6C9.9,70.9,10,71.2,10,71.4z M9,71.4c0-0.3,0-0.5-0.1-0.7
		s-0.2-0.4-0.3-0.6c-0.1-0.2-0.3-0.3-0.5-0.3c-0.2-0.1-0.4-0.1-0.7-0.1c-0.2,0-0.5,0-0.7,0.1c-0.2,0.1-0.4,0.2-0.5,0.3
		c-0.1,0.2-0.2,0.3-0.3,0.6c-0.1,0.2-0.1,0.5-0.1,0.7c0,0.3,0,0.5,0.1,0.7c0.1,0.2,0.2,0.4,0.3,0.6C6.4,72.8,6.6,73,6.8,73
		s0.4,0.1,0.7,0.1c0.2,0,0.5,0,0.7-0.1c0.2-0.1,0.4-0.2,0.5-0.3c0.1-0.2,0.2-0.3,0.3-0.6S9,71.7,9,71.4z"/>
	<path class="st1" d="M16.2,68.9v5h-0.8v-3.2c0-0.1,0-0.3,0-0.4l-1.5,2.8c-0.1,0.1-0.2,0.2-0.3,0.2h-0.1c-0.1,0-0.3-0.1-0.3-0.2
		l-1.5-2.9c0,0.1,0,0.2,0,0.2s0,0.1,0,0.2v3.2h-0.8v-5h0.7c0,0,0.1,0,0.1,0c0,0,0.1,0,0.1,0c0,0,0,0,0.1,0c0,0,0,0,0.1,0.1l1.5,2.8
		c0,0.1,0.1,0.1,0.1,0.2c0,0.1,0.1,0.2,0.1,0.2c0-0.1,0.1-0.2,0.1-0.2c0-0.1,0.1-0.2,0.1-0.2l1.5-2.8c0,0,0-0.1,0.1-0.1
		c0,0,0,0,0.1,0c0,0,0.1,0,0.1,0c0,0,0.1,0,0.1,0H16.2z"/>
	<path class="st1" d="M22.8,68.9v5h-0.8v-3.2c0-0.1,0-0.3,0-0.4l-1.5,2.8c-0.1,0.1-0.2,0.2-0.3,0.2H20c-0.1,0-0.3-0.1-0.3-0.2
		l-1.5-2.9c0,0.1,0,0.2,0,0.2c0,0.1,0,0.1,0,0.2v3.2h-0.8v-5H18c0,0,0.1,0,0.1,0c0,0,0.1,0,0.1,0c0,0,0,0,0.1,0c0,0,0,0,0.1,0.1
		l1.5,2.8c0,0.1,0.1,0.1,0.1,0.2c0,0.1,0.1,0.2,0.1,0.2c0-0.1,0.1-0.2,0.1-0.2c0-0.1,0.1-0.2,0.1-0.2l1.5-2.8c0,0,0-0.1,0.1-0.1
		c0,0,0,0,0.1,0c0,0,0.1,0,0.1,0c0,0,0.1,0,0.1,0H22.8z"/>
	<path class="st1" d="M24.8,73.9h-0.9v-5h0.9V73.9z"/>
	<path class="st1" d="M29.4,69.7h-1.5v4.2H27v-4.2h-1.5v-0.8h4V69.7z"/>
	<path class="st1" d="M33.6,69.7h-1.5v4.2h-0.9v-4.2h-1.5v-0.8h4V69.7z"/>
	<path class="st1" d="M35.2,69.6V71h1.8v0.7h-1.8v1.4h2.2v0.7h-3.2v-5h3.2v0.7H35.2z"/>
	<path class="st1" d="M42.7,71.4c0,0.4-0.1,0.7-0.2,1c-0.1,0.3-0.3,0.6-0.5,0.8c-0.2,0.2-0.5,0.4-0.8,0.5c-0.3,0.1-0.7,0.2-1,0.2
		h-1.9v-5h1.9c0.4,0,0.7,0.1,1,0.2c0.3,0.1,0.6,0.3,0.8,0.5c0.2,0.2,0.4,0.5,0.5,0.8C42.6,70.7,42.7,71,42.7,71.4z M41.7,71.4
		c0-0.3,0-0.5-0.1-0.7c-0.1-0.2-0.2-0.4-0.3-0.6c-0.1-0.2-0.3-0.3-0.5-0.3c-0.2-0.1-0.4-0.1-0.7-0.1h-1v3.5h1c0.2,0,0.5,0,0.7-0.1
		c0.2-0.1,0.4-0.2,0.5-0.3c0.1-0.2,0.2-0.3,0.3-0.6C41.7,71.9,41.7,71.7,41.7,71.4z"/>
</g>
<g class="st0">
	<path class="st1" d="M51.7,69.7h-1.5v4.2h-0.9v-4.2h-1.5v-0.8h4V69.7z"/>
</g>
<g class="st0">
	<path class="st1" d="M57.1,71.4c0,0.4-0.1,0.7-0.2,1c-0.1,0.3-0.3,0.6-0.5,0.8c-0.2,0.2-0.5,0.4-0.8,0.5c-0.3,0.1-0.7,0.2-1,0.2
		c-0.4,0-0.7-0.1-1-0.2c-0.3-0.1-0.6-0.3-0.8-0.5c-0.2-0.2-0.4-0.5-0.5-0.8c-0.1-0.3-0.2-0.7-0.2-1c0-0.4,0.1-0.7,0.2-1
		c0.1-0.3,0.3-0.6,0.5-0.8c0.2-0.2,0.5-0.4,0.8-0.5c0.3-0.1,0.7-0.2,1-0.2c0.3,0,0.5,0,0.7,0.1c0.2,0.1,0.4,0.1,0.6,0.2
		c0.2,0.1,0.4,0.2,0.5,0.4c0.1,0.2,0.3,0.3,0.4,0.5c0.1,0.2,0.2,0.4,0.2,0.6C57.1,70.9,57.1,71.2,57.1,71.4z M56.2,71.4
		c0-0.3,0-0.5-0.1-0.7s-0.2-0.4-0.3-0.6c-0.1-0.2-0.3-0.3-0.5-0.3c-0.2-0.1-0.4-0.1-0.7-0.1s-0.5,0-0.7,0.1
		c-0.2,0.1-0.4,0.2-0.5,0.3c-0.1,0.2-0.2,0.3-0.3,0.6C53,70.9,53,71.1,53,71.4c0,0.3,0,0.5,0.1,0.7c0.1,0.2,0.2,0.4,0.3,0.6
		c0.1,0.2,0.3,0.3,0.5,0.3c0.2,0.1,0.4,0.1,0.7,0.1s0.5,0,0.7-0.1c0.2-0.1,0.4-0.2,0.5-0.3c0.1-0.2,0.2-0.3,0.3-0.6
		S56.2,71.7,56.2,71.4z"/>
</g>
<g class="st0">
	<path class="st1" d="M65,69.7h-1.5v4.2h-0.9v-4.2h-1.5v-0.8h4V69.7z"/>
	<path class="st1" d="M69.9,68.9v5H69v-2.2h-2.4v2.2h-0.9v-5h0.9v2.2H69v-2.2H69.9z"/>
	<path class="st1" d="M72,69.6V71h1.8v0.7H72v1.4h2.2v0.7H71v-5h3.2v0.7H72z"/>
	<path class="st1" d="M77.6,69.6V71h1.8v0.7h-1.8v1.4h2.2v0.7h-3.2v-5h3.2v0.7H77.6z"/>
	<path class="st1" d="M85,73.9h-0.7c-0.1,0-0.1,0-0.2-0.1c-0.1,0-0.1-0.1-0.1-0.2l-0.4-1h-2.1l-0.4,1c0,0.1-0.1,0.1-0.1,0.1
		c-0.1,0-0.1,0.1-0.2,0.1h-0.7l2-5H83L85,73.9z M83.3,72l-0.6-1.7c0-0.1-0.1-0.2-0.1-0.3c0-0.1-0.1-0.2-0.1-0.3
		c0,0.1-0.1,0.2-0.1,0.3c0,0.1-0.1,0.2-0.1,0.3L81.8,72H83.3z"/>
</g>
<g>
	<g class="st0">
		<path class="st1" d="M89.5,73.9h-0.8c-0.2,0-0.3-0.1-0.3-0.2l-1.1-1.6c0-0.1-0.1-0.1-0.1-0.1c0,0-0.1,0-0.2,0h-0.4v2h-0.9v-5h1.5
			c0.3,0,0.6,0,0.9,0.1c0.2,0.1,0.4,0.2,0.6,0.3c0.2,0.1,0.3,0.3,0.3,0.5c0.1,0.2,0.1,0.4,0.1,0.6c0,0.2,0,0.3-0.1,0.5
			c-0.1,0.1-0.1,0.3-0.2,0.4c-0.1,0.1-0.2,0.2-0.3,0.3c-0.1,0.1-0.3,0.2-0.5,0.2c0.1,0,0.1,0.1,0.2,0.1s0.1,0.1,0.1,0.2L89.5,73.9z
			 M87.1,71.3c0.2,0,0.3,0,0.5-0.1c0.1,0,0.2-0.1,0.3-0.2c0.1-0.1,0.1-0.2,0.2-0.3s0.1-0.2,0.1-0.4c0-0.3-0.1-0.4-0.3-0.6
			c-0.2-0.1-0.4-0.2-0.8-0.2h-0.6v1.7H87.1z"/>
	</g>
	<g class="st0">
		<path class="st1" d="M93.5,69.7H92v4.2h-0.9v-4.2h-1.5v-0.8h4V69.7z"/>
		<path class="st1" d="M98.4,68.9v5h-0.9v-2.2h-2.4v2.2h-0.9v-5h0.9v2.2h2.4v-2.2H98.4z"/>
	</g>
</g>
<path class="st1" d="M32.9,24.7c0.6-5-1-10.1-4.4-13.8c-2.9-3.5-7-5.7-11.5-6.2l-0.8-0.1l-3.6,3.3c4,0.4,7.9,1.8,11.1,4.2
	c3.8,2.9,6.1,7.4,6.1,12.1c-0.1,2.8-0.8,5.6-2,8.1C30,30.1,31.7,27.5,32.9,24.7z"/>
<path class="st2" d="M43.8,55.8l2.3-2.4c-3.1,0.1-9.7-8.4-17.5-17.9c-1.1-1.3-2.3-2.5-3.5-3.7c-5.6-4.7-9.2-4-9.2-4L13,30.3
	c3.2,0.2,5.2,0.8,9,4.1c1.3,1.1,2.5,2.4,3.7,3.7l3.1,3.7c5.7,6.9,11.8,14.4,14.5,14.4L43.8,55.8z"/>
<path class="st3" d="M18.2,39.1c0.5,0.5,2.3,2.1,3.5,3.6c7.8,9.4,14.4,18,17.5,17.9l2.7-2.8c-3-0.8-7.5-6-14.6-14.7
	c-1-1.2-2-2.5-3.1-3.7c-1-1.3-2.2-2.4-3.4-3.5c-5.4-4.6-9.5-4.1-9.5-4.1L11.1,32c0,0-2.9,2.5-3.4,3C11.6,34.8,15.4,36.3,18.2,39.1z"
	/>
<path class="st2" d="M18.2,26.5c0,0,7.1-0.3,8.9-6.7c1.3,1.9,1.4,7.4-0.8,10.7C24.2,28.6,22.2,26.7,18.2,26.5z"/>
<path class="st1" d="M34.7,21.1c0.1,0.8,1.2-3.3,1.2-4c-0.1-4.8-2.2-9.4-5.9-12.6c-2.4-2.2-5.3-3.7-8.5-4.5L18,3
	c4.2,0.7,8.1,2.6,11.2,5.6C32.5,12,34.4,16.4,34.7,21.1z"/>
<path class="st1" d="M46.3,37.2c-0.6,0.4-1.3,0.6-2,0.6h-1.4v3.1h-1v-8h2.3c0.7,0,1.4,0.2,1.9,0.6C47.3,34.4,47.3,36.1,46.3,37.2
	C46.3,37.1,46.3,37.2,46.3,37.2z M45.5,33.9c-0.4-0.3-0.9-0.4-1.4-0.3H43V37h1.2c0.5,0,1-0.1,1.4-0.4c0.7-0.7,0.8-1.8,0.1-2.5
	C45.6,34,45.6,34,45.5,33.9z"/>
<path class="st1" d="M53,40.8l-0.8-2.1h-3.6l-0.8,2.1h-1l3-8H51l3,8H53L53,40.8z M50.5,33.7l-1.5,4.2h3L50.5,33.7z"/>
<path class="st1" d="M59.4,37.2c-0.6,0.4-1.3,0.6-2,0.6H56v3.1h-1v-8h2.3c0.7,0,1.4,0.2,1.9,0.6C60.3,34.4,60.4,36.1,59.4,37.2
	C59.4,37.1,59.4,37.1,59.4,37.2z M58.6,33.9c-0.4-0.3-0.9-0.4-1.4-0.3h-1.2V37h1.2c0.5,0,1-0.1,1.4-0.4c0.7-0.7,0.8-1.8,0.1-2.5
	C58.7,34,58.7,34,58.6,33.9z"/>
<path class="st1" d="M61.8,40.8v-8h4.7v0.8h-3.8v2.6h3.5v0.8h-3.5V40h3.9v0.8H61.8z"/>
<path class="st1" d="M72.7,40.8l-2.2-3.4h-1.3v3.4h-1v-8h2.5c0.7,0,1.3,0.2,1.8,0.6c0.5,0.4,0.8,1.1,0.8,1.7c0,1.1-0.8,2-1.8,2.2
	l2.4,3.5H72.7L72.7,40.8z M71.8,33.9c-0.4-0.2-0.8-0.3-1.3-0.3h-1.3v3.1h1.3c0.5,0,0.9-0.1,1.3-0.3c0.7-0.5,0.8-1.5,0.3-2.2
	C72,34.1,71.9,34,71.8,33.9z"/>
<path class="st1" d="M79.2,40.3c-0.6,0.5-1.3,0.7-2,0.7c-1,0-2-0.5-2.7-1.3l0.6-0.6c0.5,0.7,1.3,1.1,2.1,1.1c1.2,0,1.8-0.6,1.8-1.4
	c-0.1-0.6-0.5-1.1-1.1-1.3c-0.4-0.2-1.4-0.5-1.6-0.6c-0.3-0.1-0.6-0.3-0.8-0.6c-0.4-0.4-0.6-0.9-0.6-1.4c0-0.6,0.3-1.2,0.8-1.6
	c0.5-0.4,1.1-0.6,1.8-0.5c0.9,0,1.9,0.4,2.5,1.1l-0.5,0.6c-0.5-0.6-1.2-1-1.9-1c-0.7-0.1-1.5,0.4-1.6,1.1c0,0.1,0,0.1,0,0.2
	c0,0.6,0.5,1.1,1.1,1.3c0.4,0.2,1.4,0.6,1.7,0.7c0.3,0.1,0.6,0.3,0.8,0.5c0.4,0.4,0.6,0.9,0.6,1.4C79.9,39.3,79.6,39.9,79.2,40.3z"
	/>
<path class="st1" d="M46.3,28.2l-1.9-3.1h-1v3.1h-1.6v-8h2.9c0.7,0,1.4,0.2,2,0.5c1,0.8,1.2,2.3,0.4,3.3c-0.3,0.4-0.7,0.6-1.1,0.8
	l2.1,3.4L46.3,28.2L46.3,28.2z M45.6,21.7c-0.3-0.2-0.6-0.3-1-0.3h-1.1v2.5h1.1c0.4,0,0.7-0.1,1-0.3c0.5-0.4,0.7-1.2,0.2-1.8
	C45.7,21.8,45.7,21.8,45.6,21.7z"/>
<path class="st1" d="M53.9,20.2h1.6v4.8c0.1,0.9-0.2,1.7-0.7,2.4c-1.4,1.2-3.6,1.2-5,0c-0.5-0.7-0.8-1.5-0.7-2.4v-4.8h1.6v4.9
	c-0.1,0.5,0.1,0.9,0.3,1.3c0.3,0.4,0.8,0.5,1.3,0.5c0.5,0,1-0.2,1.3-0.5c0.3-0.4,0.4-0.8,0.3-1.3L53.9,20.2L53.9,20.2z"/>
<path class="st1" d="M62.8,22.6c-0.7-1.1-2.2-1.4-3.3-0.7c-0.8,0.5-1.2,1.4-1.1,2.3c0,1.6,0.9,2.7,2.3,2.7c0.8,0,1.6-0.4,2.1-1.1
	l0.8,1.1c-0.7,1-1.8,1.5-3,1.5c-2.2,0-3.8-1.5-3.8-4.1c-0.1-2.1,1.4-4,3.6-4.1c0.1,0,0.2,0,0.3,0c1.2-0.1,2.3,0.5,2.9,1.4L62.8,22.6
	z"/>
<path class="st1" d="M69.9,28.2v-3.6h-3.5v3.6h-1.6v-8h1.6v3.2h3.5v-3.2h1.6v8L69.9,28.2L69.9,28.2z"/>
<path class="st1" d="M73.3,28.2v-8h1.6v8H73.3z"/>
<path class="st1" d="M81.2,28.2l-1.9-3.1h-1v3.1h-1.6v-8h2.9c0.7,0,1.4,0.2,2,0.5c1,0.8,1.2,2.3,0.4,3.3c-0.3,0.4-0.7,0.6-1.1,0.8
	l2.1,3.4L81.2,28.2L81.2,28.2z M80.5,21.7c-0.3-0.2-0.6-0.3-1-0.3h-1.1v2.5h1.1c0.4,0,0.7-0.1,1-0.3c0.6-0.4,0.7-1.2,0.3-1.7
	C80.7,21.8,80.6,21.8,80.5,21.7z"/>
<path class="st1" d="M89,28.2l-0.6-1.8h-3.1l-0.6,1.8h-1.6l2.8-8h1.9l2.8,8H89L89,28.2z M86.9,21.7l-1.2,3.5H88L86.9,21.7z"/>
</svg>
